<svg xmlns="http://www.w3.org/2000/svg" viewBox="0 0 24 24" width="32" height="32">
  <path fill="#FF9900" d="M15.42 12.16c-1.52.88-3.41 1.34-5.26 1.34-2.88 0-5.46-1.12-7.16-3-.26-.29-.04-.68.32-.47 2.18 1.25 4.8 1.99 7.48 1.99 1.63 0 3.32-.34 4.89-1.04.38-.17.65.25.27.53M16.59 10.98c-.19.06-.38.04-.49-.1-.28-.35-.91-1.39-1.25-1.92-.1-.15-.04-.3.11-.25 1.54.49 3.01.21 3.51-.38.25-.3.17-.61-.17-.77-1.31-.61-3.64.07-4.48 1.09-.59.72-.73 1.53-.41 2.06.33.55 1.13.78 2.01.62.29-.05.58-.16.86-.3.18-.09.43-.11.31-.05"/>
</svg>
